<svg width="346" height="469" viewBox="0 0 346 469" fill="none" xmlns="http://www.w3.org/2000/svg">
<path d="M62.4628 371.697L39.1017 432.998H22.8614L0 371.697H11.2433L29.9821 424.491H32.4807L51.2195 371.697H62.4628Z" fill="#EBEBFF"/>
<path d="M133.617 432.998H89.8928V389.212L98.6376 380.454H89.8928V371.697H133.617V380.454H99.8868V405.475L107.382 397.969H133.617V406.726H99.8868V424.241H133.617V432.998Z" fill="#EBEBFF"/>
<path d="M208.572 432.998H164.848V371.697H174.842V424.241H198.578V415.483H208.572V432.998Z" fill="#EBEBFF"/>
<path d="M269.185 380.454H251.071V432.998H241.077V380.454H222.963V371.697H269.185V380.454Z" fill="#EBEBFF"/>
<path d="M346 432.998H336.006V415.483H303.525V432.998H293.531V380.454C293.531 378.036 294.364 375.992 296.03 374.324C297.779 372.573 299.861 371.697 302.276 371.697H346V432.998ZM336.006 406.726V380.454H303.525V414.232L311.021 406.726H336.006Z" fill="#EBEBFF"/>
<path d="M79.5065 469H77.0435V464.691H69.0388V469H66.5758V456.073C66.5758 455.478 66.7811 454.975 67.1916 454.564C67.6226 454.133 68.1357 453.918 68.731 453.918H79.5065V469ZM77.0435 462.536V456.073H69.0388V464.383L70.8861 462.536H77.0435Z" fill="#EBEBFF"/>
<path d="M113.207 466.845C113.207 467.44 112.991 467.953 112.56 468.384C112.15 468.795 111.647 469 111.051 469H102.431C101.836 469 101.323 468.795 100.892 468.384C100.481 467.953 100.276 467.44 100.276 466.845V456.073C100.276 455.478 100.481 454.975 100.892 454.564C101.323 454.133 101.836 453.918 102.431 453.918H111.051C111.647 453.918 112.15 454.133 112.56 454.564C112.991 454.975 113.207 455.478 113.207 456.073V458.227H110.744V456.073H102.739V466.845H110.744V464.691H113.207V466.845Z" fill="#EBEBFF"/>
<path d="M146.162 469H143.699V464.691H135.695V469H133.232V456.073C133.232 455.478 133.437 454.975 133.847 454.564C134.278 454.133 134.791 453.918 135.387 453.918H146.162V469ZM143.699 462.536V456.073H135.695V464.383L137.542 462.536H143.699Z" fill="#EBEBFF"/>
<path d="M180.016 466.845C180.016 467.42 179.801 467.923 179.37 468.354C178.939 468.785 178.436 469 177.861 469H167.086V458.227L169.241 456.073H167.086V453.918H177.861C178.436 453.918 178.939 454.133 179.37 454.564C179.801 454.995 180.016 455.498 180.016 456.073V466.845ZM177.553 466.845V456.073H169.549V468.692L171.396 466.845H177.553Z" fill="#EBEBFF"/>
<path d="M211.565 469H200.789V458.227L202.944 456.073H200.789V453.918H211.565V456.073H203.252V462.228L205.099 460.382H211.565V462.536H203.252V466.845H211.565V469Z" fill="#EBEBFF"/>
<path d="M246.662 468.969H244.199V457.642L245.123 456.103H243.737L239.951 464.691H238.165L234.501 456.103H233.116L234.039 457.642V468.969H231.576V453.918H235.979L239.027 461.12H239.335L242.383 453.918H246.662V468.969Z" fill="#EBEBFF"/>
<path d="M279.91 462.536C279.91 463.131 279.695 463.644 279.264 464.075C278.853 464.486 278.35 464.691 277.755 464.691H274.676V469H272.213V464.691H269.135C268.539 464.691 268.026 464.486 267.595 464.075C267.185 463.644 266.979 463.131 266.979 462.536V453.918H269.442V462.536H277.447V453.918H279.91V462.536Z" fill="#EBEBFF"/>
<path fill-rule="evenodd" clip-rule="evenodd" d="M123.138 298.221L173.243 322.559L223.348 298.221L254.664 283.01L304.769 258.672L337.253 115.12L246.234 0H100.252L9.23315 115.12L41.7173 258.672L91.8223 283.01L123.138 298.221ZM205.274 283.683L173.243 299.242L141.212 283.683L133.301 248.723L155.467 220.688H191.019L213.185 248.723L205.274 283.683ZM201.049 199.679L235.723 243.535L229.276 272.025L236.59 268.472L252.235 199.333L208.398 143.888H138.088L94.2511 199.333L109.896 268.472L117.21 272.025L110.763 243.535L145.437 199.679H201.049ZM218.428 122.88L274.773 194.144L260.592 256.813L286.695 244.134L314.715 120.309L236.204 21.0082H110.282L31.7711 120.309L59.7913 244.134L85.8943 256.813L71.7131 194.144L128.058 122.88H218.428Z" fill="#EBEBFF"/>
</svg>
